<?xml version="1.0" encoding="UTF-8"?>
<svg xmlns="http://www.w3.org/2000/svg" viewBox="0 0 48 48">
<style type="text/css">path { fill: #b93e15; } @media (prefers-color-scheme: dark) { path { fill: #d37657; } }</style>
<path d="M6.39 35.84c0-6.84 5.76-10.58 12.67-13.1-3.82-1.87-5.69-5.4-5.69-8.57C13.37 7.49 19.54 1.6 27.68 0H0v48h17.07C10.9 46.63 6.46 42.15 6.4 35.84Z"/>
<path d="M36.44 0c3.41.8 5.11 2.6 5.16 4.88.07 1.8-1.15 4.75-2.38 6.34h-1.87c-.43-5.9-4.25-8.42-8.71-8.42-5.11 0-7.13 4.18-7.13 8.21 0 5.83 3.6 7.92 8.57 7.92 1.22 0 2.95-.07 4.1-.22.07.36.22.79.29 1.15l-3.82 4.25c-1.08-.14-2.38-.22-4.25-.22-7.2 0-10.3 3.53-10.3 9 0 5.98 4.18 9.72 10.37 9.72 4.03 0 8.78-1.58 12.96-5.76l1.22 2.16c-4.71 5.57-10.06 8.07-14.84 8.99h22.17V0H36.42Z"/>
</svg>