<svg width="148" height="148" viewBox="0 0 148 148" fill="none" xmlns="http://www.w3.org/2000/svg">
<path d="M53.289 131.63H113.852L137.676 42.6509H101.941V16.8182H47.2613C33.1969 16.8182 21.5721 28.4429 21.5721 42.5074C21.5721 47.3869 23.0073 51.9794 25.447 55.9978C16.1185 63.8911 10.0909 75.6594 10.0909 88.7193C10.0909 112.256 29.4655 131.63 53.289 131.63ZM55.7287 84.2703C55.7287 76.377 62.0434 70.0623 69.7932 70.0623C77.543 70.0623 84.0012 76.377 84.0012 84.2703C84.0012 92.1636 77.543 98.4783 69.7932 98.4783C62.0434 98.4783 55.7287 92.1636 55.7287 84.2703Z" fill="#f04a00" stroke="#f9dc9a" stroke-width="3"/>
</svg>
